# xmcd
#
# Track frame offsets:
#  150
#  19574
#  39482
#  60514
#  86271
#  98477
#  116949
#  134786
#  156040
#  175259
#  200519
#  218396
#  232663
#  258229
#  279722
#  295134
#  310359
#
# Disc length: 4380 seconds
#
# Revision: 0
# Processed by: cddbd v1.4PL0 Copyright (c) Steve Scherf et al.
# Submitted via: AltoMP3_Maker 3.0
#
DISCID=e4111a11
DTITLE=欧美情歌―依随你心 - 欧美情歌―依随你心
DYEAR=1900
DGENRE=
TTITLE0=依随你心
TTITLE1=荣耀大地
TTITLE2=那梦就是你的心愿
TTITLE3=爱的力量
TTITLE4=苏基雅基
TTITLE5=回忆
TTITLE6=爱全在身边
TTITLE7=故事
TTITLE8=没有你我还怎去生存
TTITLE9=阿根廷别为我哭泣
TTITLE10=你的爱有多深
TTITLE11=在这里一个人
TTITLE12=你是我的一切
TTITLE13=用这首歌杀死我
TTITLE14=抗拒所有奇怪的事
TTITLE15=等一会
TTITLE16=我有没告诉你
EXTD=
EXTT0=
EXTT1=
EXTT2=
EXTT3=
EXTT4=
EXTT5=
EXTT6=
EXTT7=
EXTT8=
EXTT9=
EXTT10=
EXTT11=
EXTT12=
EXTT13=
EXTT14=
EXTT15=
EXTT16=
PLAYORDER=
